<svg width="127" height="57" viewBox="0 0 127 57" fill="none" xmlns="http://www.w3.org/2000/svg">
<path d="M7.104 53.608C6.848 53.608 6.592 53.48 6.336 53.224L5.664 53.032L5.472 53.128L5.664 52.84C5.664 52.648 5.536 52.552 5.28 52.552C5.024 52.552 4.832 52.552 4.704 52.552C4.768 52.104 4.512 51.88 3.936 51.88C3.424 51.88 3.2 51.752 3.264 51.496L2.88 51.4C2.816 51.08 2.624 50.792 2.304 50.536C2.432 50.408 2.464 50.248 2.4 50.056C2.336 49.928 2.304 49.832 2.304 49.768C2.176 49.768 2.048 49.704 1.92 49.576L1.824 49.288C1.696 49.288 1.504 49.224 1.248 49.096C1.248 48.968 1.216 48.84 1.152 48.712C1.152 48.584 1.152 48.488 1.152 48.424H1.056C0.992 48.168 0.896 48.04 0.768 48.04C0.704 48.04 0.608 48.008 0.48 47.944C0.352 47.432 0.32 47.048 0.384 46.792C0.448 46.536 0.448 46.184 0.384 45.736L0.48 45.544C0.8 44.968 0.96 44.68 0.96 44.68C1.152 44.68 1.312 44.872 1.44 45.256C1.568 45.64 1.696 45.928 1.824 46.12C1.888 46.184 1.984 46.248 2.112 46.312C2.24 46.376 2.272 46.44 2.208 46.504L2.112 46.888L2.304 46.792C2.304 47.048 2.368 47.24 2.496 47.368C2.56 47.624 2.688 48.04 2.88 48.616C3.072 49.128 3.392 49.352 3.84 49.288C3.84 49.48 3.936 49.672 4.128 49.864C4.384 50.056 4.608 50.12 4.8 50.056C4.864 50.184 5.024 50.28 5.28 50.344C5.536 50.408 5.728 50.472 5.856 50.536C6.176 50.472 6.496 50.44 6.816 50.44C7.2 50.504 7.552 50.504 7.872 50.44L9.984 50.056C10.048 49.992 10.368 49.832 10.944 49.576C11.52 49.32 11.936 49.064 12.192 48.808H12.288C12.608 48.808 12.928 48.744 13.248 48.616C13.632 48.424 13.952 48.264 14.208 48.136C14.4 48.072 14.56 47.976 14.688 47.848C14.816 47.656 14.976 47.528 15.168 47.464L16.032 46.984C16.224 46.856 16.416 46.824 16.608 46.888C16.864 46.888 17.088 46.76 17.28 46.504C17.472 46.376 17.632 46.216 17.76 46.024C17.952 45.832 18.112 45.672 18.24 45.544H18.528C18.72 45.224 18.848 44.968 18.912 44.776L20.736 44.104C20.864 43.976 20.96 43.848 21.024 43.72C21.152 43.528 21.248 43.368 21.312 43.24C21.44 43.112 21.6 43.016 21.792 42.952C21.984 42.824 22.08 42.632 22.08 42.376C22.4 42.248 22.688 42.088 22.944 41.896C23.264 41.704 23.488 41.48 23.616 41.224C23.744 41.16 24.128 40.872 24.768 40.36C25.408 39.784 26.144 39.144 26.976 38.44C27.808 37.736 28.544 37.128 29.184 36.616C29.824 36.04 30.176 35.72 30.24 35.656L30.624 35.272L27.648 34.12C25.984 33.48 24.256 32.968 22.464 32.584C20.736 32.136 18.848 31.816 16.8 31.624C16.352 31.56 16.032 31.432 15.84 31.24C15.712 30.984 15.648 30.536 15.648 29.896C15.648 29.064 15.968 28.52 16.608 28.264C17.248 27.944 17.984 27.784 18.816 27.784C19.712 27.784 20.416 27.848 20.928 27.976C21.504 28.104 22.304 28.2 23.328 28.264C23.456 28.264 23.936 28.36 24.768 28.552C25.6 28.68 26.496 28.808 27.456 28.936C27.584 28.936 28.096 28.968 28.992 29.032C29.952 29.096 30.784 29.128 31.488 29.128C32.32 29.064 33.184 29.032 34.08 29.032C34.976 29.032 35.872 29.032 36.768 29.032L38.304 27.304C38.88 26.664 39.424 26.024 39.936 25.384C40.512 24.744 41.12 24.136 41.76 23.56C41.952 23.368 42.144 23.208 42.336 23.08C42.592 22.952 42.816 22.76 43.008 22.504L43.872 21.448C44 21.32 44.128 21.224 44.256 21.16C44.448 21.096 44.576 21.032 44.64 20.968C44.896 20.712 45.12 20.424 45.312 20.104C45.504 19.784 45.664 19.496 45.792 19.24C45.92 19.24 46.144 19.048 46.464 18.664C46.784 18.28 46.976 18.024 47.04 17.896C47.36 17.768 47.584 17.576 47.712 17.32C47.904 17 48.064 16.68 48.192 16.36C48.384 16.232 48.576 16.104 48.768 15.976C49.024 15.784 49.216 15.592 49.344 15.4C49.472 15.208 49.568 14.984 49.632 14.728C49.76 14.472 49.952 14.312 50.208 14.248C50.4 13.736 50.816 13.16 51.456 12.52C52.16 11.816 52.544 11.336 52.608 11.08C52.928 11.016 53.216 10.824 53.472 10.504C53.728 10.12 53.984 9.864 54.24 9.736C54.496 9.032 54.976 8.424 55.68 7.912C56.384 7.336 56.768 6.728 56.832 6.088C56.896 5.96 56.992 5.864 57.12 5.8C57.248 5.736 57.344 5.672 57.408 5.608C57.6 5.48 57.728 5.32 57.792 5.128C57.92 4.872 58.08 4.648 58.272 4.456C58.336 4.328 58.4 4.232 58.464 4.168C58.592 4.104 58.688 4.04 58.752 3.976C58.688 3.976 58.464 3.912 58.08 3.784C57.952 3.784 57.696 3.784 57.312 3.784C56.928 3.72 56.512 3.688 56.064 3.688C54.592 3.688 53.6 3.752 53.088 3.88C51.872 3.944 50.816 4.04 49.92 4.168C49.088 4.296 48.096 4.52 46.944 4.84C46.944 4.84 46.912 4.808 46.848 4.744C46.784 4.68 46.72 4.648 46.656 4.648L46.56 4.552C46.368 4.488 46.336 4.52 46.464 4.648C46.592 4.776 46.56 4.872 46.368 4.936C45.984 5 45.536 5.096 45.024 5.224C44.576 5.352 44.16 5.416 43.776 5.416C43.584 5.48 43.392 5.512 43.2 5.512C43.008 5.448 42.816 5.416 42.624 5.416C41.984 5.48 41.344 5.704 40.704 6.088C40.128 6.408 39.52 6.632 38.88 6.76L37.728 7.048C37.28 7.176 36.928 7.304 36.672 7.432C36.48 7.496 36.128 7.592 35.616 7.72L34.752 8.008C34.56 8.072 34.336 8.136 34.08 8.2C33.888 8.264 33.664 8.328 33.408 8.392C32.896 8.584 32.352 8.808 31.776 9.064C31.264 9.32 30.752 9.512 30.24 9.64L28.512 10.12C28.32 10.184 28.032 10.216 27.648 10.216C27.136 10.216 26.784 10.152 26.592 10.024C26.336 9.896 26.016 9.544 25.632 8.968C25.312 8.328 25.184 7.88 25.248 7.624C25.632 7.048 26.4 6.6 27.552 6.28C28.768 5.896 29.536 5.672 29.856 5.608C29.92 5.544 30.208 5.448 30.72 5.32C31.296 5.128 31.84 4.968 32.352 4.84C32.864 4.712 33.12 4.712 33.12 4.84C33.184 4.904 32.832 5.16 32.064 5.608C31.296 5.992 30.88 6.216 30.816 6.28C30.816 6.344 30.752 6.44 30.624 6.568C30.56 6.696 30.56 6.728 30.624 6.664L32.832 6.088C32.96 6.024 33.216 5.992 33.6 5.992H34.272C34.72 5.992 35.008 5.928 35.136 5.8C35.264 5.544 35.392 5.416 35.52 5.416C35.84 5.288 36.32 5.192 36.96 5.128C37.664 5 38.112 4.872 38.304 4.744C38.624 4.68 38.976 4.648 39.36 4.648C39.744 4.584 40.096 4.488 40.416 4.36C40.608 4.296 41.248 4.168 42.336 3.976C43.488 3.784 44.64 3.592 45.792 3.4C46.944 3.208 47.584 3.112 47.712 3.112H47.808C48.128 3.112 48.448 3.08 48.768 3.016C49.088 2.888 49.28 3.016 49.344 3.4C49.408 3.4 49.44 3.432 49.44 3.496C49.44 3.496 49.472 3.496 49.536 3.496C49.92 3.496 50.272 3.336 50.592 3.016C50.72 2.952 51.04 2.888 51.552 2.824C52.064 2.76 52.384 2.728 52.512 2.728C53.024 2.664 53.44 2.632 53.76 2.632C54.08 2.632 54.368 2.632 54.624 2.632C55.136 2.632 55.584 2.664 55.968 2.728C56.416 2.728 56.96 2.76 57.6 2.824C57.856 2.888 58.176 2.92 58.56 2.92C59.008 2.92 59.392 2.952 59.712 3.016L60.096 2.536C60.544 2.28 60.928 2.152 61.248 2.152C61.504 2.152 61.632 2.28 61.632 2.536C61.632 3.24 61.28 3.88 60.576 4.456C60.512 4.52 60.352 4.616 60.096 4.744C59.84 4.808 59.68 4.904 59.616 5.032C59.296 5.864 58.656 6.632 57.696 7.336C56.8 8.04 56.32 8.552 56.256 8.872C56 9 55.712 9.192 55.392 9.448C55.072 9.704 54.88 9.96 54.816 10.216C54.496 10.6 54.24 11.016 54.048 11.464C53.856 11.848 53.568 12.232 53.184 12.616C52.992 12.808 52.672 13.192 52.224 13.768C51.776 14.344 51.328 14.92 50.88 15.496C50.432 16.008 50.112 16.264 49.92 16.264C49.728 16.456 49.632 16.584 49.632 16.648C49.696 16.712 49.568 16.84 49.248 17.032C48.928 17.352 48.672 17.704 48.48 18.088C48.096 18.152 47.776 18.408 47.52 18.856C47.328 19.24 47.136 19.592 46.944 19.912C46.688 20.232 46.4 20.52 46.08 20.776C45.824 21.032 45.568 21.32 45.312 21.64C45.056 21.704 44.768 21.992 44.448 22.504C44.192 22.952 44 23.272 43.872 23.464C43.488 23.912 43.136 24.264 42.816 24.52C42.56 24.776 42.432 25.224 42.432 25.864C42.304 25.992 42.112 26.184 41.856 26.44C41.6 26.696 41.44 26.92 41.376 27.112C41.248 27.368 41.056 27.592 40.8 27.784C40.608 27.976 40.448 28.2 40.32 28.456L40.032 28.648L39.936 28.84C40.704 28.84 41.472 28.84 42.24 28.84C43.008 28.84 43.744 28.808 44.448 28.744L47.616 28.552C47.744 28.552 47.936 28.648 48.192 28.84C48.512 28.968 48.704 29 48.768 28.936C48.96 28.936 49.024 28.84 48.96 28.648C48.896 28.392 48.992 28.264 49.248 28.264C49.824 28.2 50.528 28.136 51.36 28.072C52.256 27.944 53.12 27.784 53.952 27.592L54.816 24.904L55.68 22.12C55.808 21.672 56 21.384 56.256 21.256C56.512 21.128 56.672 20.936 56.736 20.68C56.8 20.552 56.736 20.456 56.544 20.392C56.352 20.264 56.352 20.072 56.544 19.816C57.12 18.024 57.856 16.232 58.752 14.44C59.648 12.648 60.416 11.016 61.056 9.544V9.448C61.248 9.192 61.408 9 61.536 8.872C61.728 8.744 61.856 8.584 61.92 8.392C61.856 8.328 61.856 8.264 61.92 8.2C61.984 8.136 61.952 8.072 61.824 8.008C62.272 7.56 62.528 6.984 62.592 6.28L63.552 4.264L64.992 1.96C65.056 1.768 65.216 1.544 65.472 1.288C65.984 0.711997 66.432 0.423996 66.816 0.423996C67.392 0.423996 67.424 0.775996 66.912 1.48L66.72 1.96L66.048 2.824L65.664 3.88C65.024 5.032 64.416 6.28 63.84 7.624C63.264 8.968 62.624 10.376 61.92 11.848V12.232C61.92 12.552 61.824 12.776 61.632 12.904C61.504 13.032 61.248 13.16 60.864 13.288C61.056 13.672 61.088 14.088 60.96 14.536L60.288 16.456C60.032 17.096 59.68 17.864 59.232 18.76C58.784 19.656 58.528 20.36 58.464 20.872C57.824 22.92 57.344 24.872 57.024 26.728C57.216 26.664 57.408 26.6 57.6 26.536C57.792 26.472 57.952 26.408 58.08 26.344C58.4 26.216 58.624 26.152 58.752 26.152C58.944 26.152 59.2 26.12 59.52 26.056C59.904 25.928 60.288 25.768 60.672 25.576C60.864 25.448 61.12 25.384 61.44 25.384C61.76 25.384 61.92 25.48 61.92 25.672C61.92 25.928 61.632 26.216 61.056 26.536L59.04 27.688C58.528 27.816 58.112 27.88 57.792 27.88C57.664 27.88 57.344 27.944 56.832 28.072L56.448 30.28L56.544 31.72C56.48 31.912 56.192 32.008 55.68 32.008C55.232 32.008 55.168 32.296 55.488 32.872C55.744 33.192 55.904 33.416 55.968 33.544C56.032 33.608 56 33.896 55.872 34.408C55.616 35.176 55.392 36.2 55.2 37.48C55.072 38.76 54.976 39.816 54.912 40.648C54.912 40.712 54.848 40.872 54.72 41.128C54.656 41.384 54.592 41.576 54.528 41.704C54.528 41.768 54.56 41.8 54.624 41.8C54.752 41.8 54.816 41.864 54.816 41.992C54.944 43.336 54.944 44.584 54.816 45.736L54.624 47.944C54.624 48.008 54.56 48.136 54.432 48.328C54.304 48.52 54.272 48.68 54.336 48.808C54.144 49.512 53.792 49.992 53.28 50.248C52.768 50.568 52.256 50.728 51.744 50.728C50.784 50.728 50.144 50.568 49.824 50.248L49.344 49.864V47.752C48.96 47.432 48.576 47.112 48.192 46.792C47.808 46.472 47.424 46.184 47.04 45.928C46.336 45.416 45.632 44.968 44.928 44.584C44.288 44.136 43.616 43.656 42.912 43.144C42.144 42.568 41.376 41.96 40.608 41.32C39.904 40.68 39.136 40.072 38.304 39.496C37.408 38.856 36.48 38.28 35.52 37.768C34.56 37.192 33.6 36.68 32.64 36.232C32.384 36.488 31.904 36.968 31.2 37.672C30.496 38.312 29.824 38.952 29.184 39.592C28.544 40.168 28.16 40.488 28.032 40.552C27.968 40.68 27.872 40.808 27.744 40.936C27.68 41.064 27.584 41.192 27.456 41.32C27.328 41.384 27.136 41.48 26.88 41.608C26.688 41.736 26.592 41.864 26.592 41.992C26.464 42.12 26.272 42.248 26.016 42.376C25.824 42.44 25.696 42.6 25.632 42.856L25.728 42.952C25.472 43.016 25.344 43.08 25.344 43.144C25.408 43.208 25.44 43.336 25.44 43.528C25.376 43.592 25.152 43.72 24.768 43.912C24.448 44.104 24.224 44.232 24.096 44.296C23.52 44.616 23.104 44.872 22.848 45.064C22.656 45.256 22.4 45.64 22.08 46.216C21.888 46.344 21.472 46.6 20.832 46.984C20.192 47.368 19.872 47.624 19.872 47.752C19.616 47.816 19.456 47.944 19.392 48.136C19.328 48.328 19.232 48.488 19.104 48.616C19.04 48.744 18.912 48.84 18.72 48.904C18.528 48.968 18.4 49.096 18.336 49.288L18.144 49.384H18.048C17.856 49.384 17.664 49.48 17.472 49.672C17.344 49.864 17.216 50.024 17.088 50.152C16.384 50.216 15.84 50.408 15.456 50.728C15.136 51.112 14.688 51.432 14.112 51.688C13.344 52.008 12.544 52.328 11.712 52.648C10.88 52.968 10.016 53.192 9.12 53.32C8.864 53.448 8.672 53.544 8.544 53.608C8.48 53.736 8.288 53.736 7.968 53.608C8.096 53.416 8.064 53.32 7.872 53.32C7.616 53.512 7.36 53.608 7.104 53.608ZM49.536 46.504V46.216C49.536 46.024 49.632 45.832 49.824 45.64C49.76 45.512 49.696 45.448 49.632 45.448C49.632 45.384 49.632 45.32 49.632 45.256L51.648 35.752C51.904 34.6 52.192 33.448 52.512 32.296C52.896 31.08 53.28 29.864 53.664 28.648C53.536 28.712 53.408 28.744 53.28 28.744C52.96 28.808 52.704 28.84 52.512 28.84C52.32 28.84 52 28.904 51.552 29.032C50.912 29.16 50.176 29.352 49.344 29.608C48.576 29.864 47.744 30.024 46.848 30.088C46.208 30.152 45.696 30.152 45.312 30.088C44.992 30.024 44.512 30.024 43.872 30.088C43.552 30.152 43.04 30.248 42.336 30.376C41.632 30.44 41.088 30.472 40.704 30.472L37.728 30.856C37.728 30.856 37.696 30.888 37.632 30.952C37.632 31.016 37.632 31.08 37.632 31.144C37.504 31.272 37.248 31.496 36.864 31.816C36.544 32.072 36.352 32.328 36.288 32.584L36 32.68C35.936 32.744 35.808 32.904 35.616 33.16C35.488 33.352 35.392 33.512 35.328 33.64C35.072 33.704 34.848 33.864 34.656 34.12C34.464 34.376 34.304 34.632 34.176 34.888C33.92 34.888 33.728 34.952 33.6 35.08C35.136 35.912 36.512 36.744 37.728 37.576C37.984 37.768 38.176 37.96 38.304 38.152C38.432 38.344 38.624 38.536 38.88 38.728C39.456 39.112 40 39.432 40.512 39.688C41.088 39.88 41.6 40.168 42.048 40.552L47.904 44.968C48.096 45.096 48.352 45.32 48.672 45.64C48.992 45.896 49.28 46.184 49.536 46.504ZM31.776 34.12C32.288 33.608 32.8 33.096 33.312 32.584C33.824 32.072 34.336 31.56 34.848 31.048L27.072 31.528C26.176 31.592 25.536 31.624 25.152 31.624C24.832 31.624 24.352 31.688 23.712 31.816C24.544 32.008 25.344 32.232 26.112 32.488C26.88 32.68 27.648 32.904 28.416 33.16C28.736 33.288 29.024 33.416 29.28 33.544C29.536 33.672 29.792 33.8 30.048 33.928C30.176 33.992 30.304 33.96 30.432 33.832C30.56 33.64 30.656 33.576 30.72 33.64L31.776 34.12ZM62.6318 56.392C61.7997 56.392 60.9357 56.2 60.0397 55.816C59.0797 55.496 58.3437 55.304 57.8317 55.24C57.4477 55.112 57.0957 54.824 56.7757 54.376C56.4557 53.992 56.2957 53.8 56.2957 53.8C56.4877 53.288 56.6797 53.064 56.8717 53.128C56.9997 53.192 57.2877 53.192 57.7357 53.128C57.7997 53.128 57.8957 53.096 58.0237 53.032C58.0877 53.032 58.1517 53.032 58.2157 53.032C58.4077 53.032 58.6317 53.032 58.8877 53.032C59.0797 53.096 59.3037 53.128 59.5597 53.128C60.0077 53.128 60.3597 53.032 60.6157 52.84C61.1277 52.456 61.7677 51.912 62.5358 51.208C63.3678 50.504 63.9438 49.928 64.2638 49.48C64.3918 49.352 64.4558 49.128 64.4558 48.808C64.5198 48.488 64.6798 48.36 64.9358 48.424C66.2158 46.888 67.3998 45.384 68.4878 43.912C69.6398 42.376 70.7918 40.84 71.9438 39.304C72.2638 38.408 72.7118 37.544 73.2878 36.712C73.9278 35.88 74.5358 35.112 75.1118 34.408C76.3918 32.936 77.5438 31.432 78.5678 29.896C78.5038 29.64 78.7278 29.224 79.2398 28.648C79.7518 28.008 80.0718 27.56 80.1998 27.304C80.1358 26.984 80.2318 26.344 80.4878 25.384C80.7438 24.36 81.0318 23.336 81.3518 22.312C81.6718 21.224 81.8638 20.424 81.9278 19.912C81.7998 19.976 81.7678 19.784 81.8318 19.336C81.9598 18.824 82.0878 18.248 82.2158 17.608C82.4078 16.968 82.5038 16.552 82.5038 16.36L82.9838 12.04C83.0478 11.72 83.0798 11.464 83.0798 11.272C83.0798 11.016 83.0798 10.824 83.0798 10.696C83.0798 10.312 83.0478 9.992 82.9838 9.736C82.9838 9.416 82.9518 8.968 82.8878 8.392C82.8878 7.88 82.9198 7.368 82.9838 6.856C83.0478 6.28 83.0798 5.736 83.0798 5.224C83.0798 4.712 83.0478 4.36 82.9838 4.168C82.9838 3.912 82.9838 3.72 82.9838 3.592C83.0478 3.464 83.0798 3.368 83.0798 3.304C83.0798 3.176 82.9518 2.824 82.6958 2.248C82.5678 2.248 82.5038 2.152 82.5038 1.96C82.5038 1.704 82.5678 1.448 82.6958 1.192C82.8238 0.935997 82.9518 0.871998 83.0798 1C83.3358 1.192 83.5918 1.736 83.8478 2.632C84.1038 3.528 84.3278 4.456 84.5198 5.416C84.7758 6.376 84.9038 7.112 84.9038 7.624C84.9038 7.816 84.9038 8.008 84.9038 8.2C84.9038 8.392 84.9358 8.584 84.9998 8.776C85.0638 9.16 85.1278 9.736 85.1918 10.504C85.3198 11.208 85.3838 11.752 85.3838 12.136V12.808C85.3838 13.064 85.3838 13.384 85.3838 13.768C85.3838 14.088 85.3518 14.44 85.2878 14.824C85.2238 15.656 85.1278 16.424 84.9998 17.128C84.9358 17.832 84.9038 18.472 84.9038 19.048C84.9038 19.56 84.9678 20.008 85.0958 20.392C85.2878 19.88 85.5438 19.432 85.8638 19.048C86.2478 18.6 86.6318 18.216 87.0157 17.896C87.1438 17.96 87.2078 17.992 87.2078 17.992C87.2078 17.992 87.3358 17.8 87.5918 17.416L88.8398 16.264C88.9038 16.2 88.9998 16.072 89.1278 15.88C89.2558 15.624 89.3838 15.528 89.5118 15.592L89.9918 14.824L91.7198 13.768C91.9118 13.512 92.1358 13.192 92.3918 12.808C92.7118 12.424 92.9998 12.104 93.2558 11.848C94.2158 10.952 95.2398 10.12 96.3278 9.352C97.4158 8.584 98.5358 7.816 99.6878 7.048C100.072 6.792 100.424 6.632 100.744 6.568C101.128 6.44 101.48 6.248 101.8 5.992C101.864 5.928 101.96 5.864 102.088 5.8C102.216 5.672 102.312 5.672 102.376 5.8L103.336 5.224L103.432 5.32C103.56 5.32 104.072 5.064 104.968 4.552L105.64 4.168L105.736 4.264L107.176 3.592V3.688C107.752 3.688 108.136 3.624 108.328 3.496L108.424 3.304C108.808 2.984 109.256 2.792 109.768 2.728C110.344 2.664 110.856 2.536 111.304 2.344L111.496 2.536L113.224 2.152C113.736 2.216 114.152 2.216 114.472 2.152C114.856 2.024 115.24 1.96 115.624 1.96C115.752 1.96 115.88 1.96 116.008 1.96C116.2 1.96 116.424 2.024 116.68 2.152C116.808 2.024 117 1.96 117.256 1.96C117.704 1.96 118.216 2.056 118.792 2.248C119.432 2.376 119.848 2.472 120.04 2.536L121.192 2.824C122.6 3.592 123.784 4.584 124.744 5.8C125.064 6.312 125.384 6.92 125.704 7.624C126.088 8.328 126.312 8.936 126.376 9.448L126.28 10.216C126.28 10.408 126.28 10.6 126.28 10.792C126.344 10.984 126.376 11.176 126.376 11.368C126.376 12.712 126.12 14.088 125.608 15.496C125.096 16.84 124.456 18.088 123.688 19.24C122.728 20.648 121.672 21.928 120.52 23.08C119.432 24.168 118.408 25.256 117.448 26.344C117.256 26.28 116.808 26.632 116.104 27.4C115.4 28.168 114.888 28.648 114.568 28.84C114.568 28.712 114.536 28.712 114.472 28.84C114.472 28.968 114.472 29.064 114.472 29.128L112.84 30.088C112.84 30.216 112.456 30.504 111.688 30.952C110.984 31.336 110.568 31.56 110.44 31.624C110.184 31.752 109.96 31.912 109.768 32.104C109.576 32.296 109.32 32.456 109 32.584H108.808L106.888 33.544C106.888 33.416 106.856 33.352 106.792 33.352C106.728 33.352 106.6 33.448 106.408 33.64C106.216 33.832 106.056 33.896 105.928 33.832L104.584 34.024C104.52 34.024 104.36 34.12 104.104 34.312C103.912 34.504 103.784 34.536 103.72 34.408L100.456 35.944C99.8158 36.072 99.1438 36.136 98.4398 36.136C97.7998 36.072 97.1278 36.04 96.4238 36.04C96.4238 36.104 96.3598 36.136 96.2318 36.136C96.1038 36.072 96.0398 36.008 96.0398 35.944C95.6558 36.136 94.8238 36.232 93.5438 36.232C91.9438 36.232 90.7598 36.104 89.9918 35.848C89.9918 35.912 89.9278 35.944 89.7998 35.944C89.7358 35.944 89.6078 35.912 89.4158 35.848C89.2878 35.72 89.1598 35.656 89.0318 35.656C88.6478 35.592 88.1038 35.304 87.3998 34.792C86.7598 34.28 86.1838 33.896 85.6718 33.64C85.6078 33.512 85.4478 33.416 85.1918 33.352C84.9998 33.288 84.8718 33.224 84.8078 33.16C84.6798 32.904 84.6158 32.776 84.6158 32.776C84.6158 32.456 84.9358 32.296 85.5758 32.296C86.2158 32.232 86.5998 32.232 86.7278 32.296C87.5598 32.616 88.1358 32.776 88.4558 32.776C88.7118 32.776 89.0318 32.776 89.4158 32.776C89.7998 32.712 90.5038 32.68 91.5278 32.68C92.9998 32.68 94.5038 32.616 96.0398 32.488C97.6398 32.36 99.1118 31.976 100.456 31.336H100.552C100.68 31.336 100.808 31.304 100.936 31.24C101.128 31.112 101.256 31.112 101.32 31.24L102.28 30.376C102.344 30.44 102.44 30.44 102.568 30.376C102.696 30.312 102.792 30.28 102.856 30.28L104.008 30.088C104.008 29.96 104.104 29.8 104.296 29.608C104.552 29.416 104.712 29.384 104.776 29.512L105.64 29.224H105.832L106.696 28.552H106.792C107.048 28.552 107.304 28.456 107.56 28.264C107.816 28.008 108.008 27.848 108.136 27.784C108.136 27.72 108.232 27.688 108.424 27.688C108.68 27.56 109.032 27.272 109.48 26.824C109.928 26.312 110.216 26.184 110.344 26.44L111.016 25.96H111.112C111.304 25.896 111.432 25.8 111.496 25.672C111.56 25.48 111.72 25.416 111.976 25.48C112.104 25.288 112.36 25.032 112.744 24.712C113.192 24.328 113.416 24.008 113.416 23.752C114.056 23.24 114.728 22.824 115.432 22.504C116.136 22.12 116.616 21.512 116.872 20.68C116.936 20.68 117.192 20.488 117.64 20.104C118.088 19.656 118.536 19.144 118.984 18.568C119.496 17.992 119.88 17.544 120.136 17.224C120.2 17.16 120.328 17.16 120.52 17.224C120.776 17.224 121.032 17.192 121.288 17.128C121.544 17.128 121.8 17.032 122.056 16.84C122.312 16.648 122.28 16.456 121.96 16.264C121.64 16.072 121.416 15.976 121.288 15.976C121.16 15.912 121.128 15.72 121.192 15.4C121.256 14.952 121.384 14.536 121.576 14.152C121.768 13.704 121.96 13.288 122.152 12.904L122.728 11.656C122.856 11.08 122.888 10.728 122.824 10.6C122.824 10.472 122.824 10.12 122.824 9.544C122.824 7.368 122.216 5.896 121 5.128C119.848 4.296 118.312 3.56 116.392 2.92C116.328 2.984 116.232 3.016 116.104 3.016C115.976 2.952 115.848 2.92 115.72 2.92C115.464 2.856 114.888 2.888 113.992 3.016C113.16 3.08 112.68 3.08 112.552 3.016C112.104 3.272 111.656 3.4 111.208 3.4C110.824 3.336 110.376 3.432 109.864 3.688C109.8 3.624 109.352 3.784 108.52 4.168C107.688 4.488 107.176 4.776 106.984 5.032C106.664 5.096 106.248 5.256 105.736 5.512C105.288 5.768 105 5.864 104.872 5.8L104.392 6.376C103.88 6.44 103.272 6.696 102.568 7.144C101.864 7.528 101.48 7.656 101.416 7.528L100.552 8.2C100.616 8.264 100.648 8.328 100.648 8.392C100.648 8.648 100.456 8.808 100.072 8.872C99.6878 8.936 99.4638 8.968 99.3998 8.968L99.3038 9.256L98.4398 9.832L98.1518 10.12C98.0878 10.184 97.9918 10.216 97.8638 10.216C97.7358 10.152 97.6398 10.184 97.5758 10.312C97.3198 10.568 96.9998 10.92 96.6158 11.368C96.2318 11.816 95.9118 12.104 95.6558 12.232C95.0158 12.488 94.3758 12.968 93.7358 13.672C93.0958 14.312 92.5198 14.888 92.0078 15.4C91.9438 15.464 91.6878 15.656 91.2398 15.976C90.7918 16.296 90.5038 16.424 90.3758 16.36C90.1838 16.616 89.8958 17.032 89.5118 17.608C89.1278 18.184 88.7758 18.536 88.4558 18.664L87.9758 19.72C87.5278 19.912 87.1758 20.168 86.9198 20.488C86.6638 20.808 86.3438 21.032 85.9598 21.16C85.8318 21.8 85.5118 22.376 84.9998 22.888C84.5518 23.4 84.1678 23.944 83.8478 24.52C83.9758 25.16 84.0398 25.896 84.0398 26.728C84.0398 27.496 83.9758 28.264 83.8478 29.032C83.7838 29.8 83.5918 30.44 83.2718 30.952V31.048C83.2718 31.304 83.1438 31.592 82.8878 31.912C82.6318 32.232 82.5358 32.68 82.5998 33.256C82.3438 33.448 82.0878 33.928 81.8318 34.696C81.6398 35.464 81.4478 36.04 81.2558 36.424C81.1918 36.552 80.9998 36.776 80.6798 37.096C80.4238 37.352 80.3598 37.544 80.4878 37.672C79.9118 38.376 79.5278 39.208 79.3358 40.168C79.1438 41.064 78.7598 41.864 78.1838 42.568L77.9918 42.376C77.9278 42.632 77.8638 42.856 77.7998 43.048C77.7358 43.24 77.6078 43.464 77.4158 43.72C77.3518 43.848 77.1278 44.232 76.7438 44.872C76.3598 45.448 75.9758 46.024 75.5918 46.6C75.2078 47.176 74.9838 47.464 74.9198 47.464L74.4398 48.424C74.2478 48.424 74.0238 48.52 73.7678 48.712C73.5758 48.904 73.4158 49.064 73.2878 49.192C73.3518 49.448 73.1918 49.768 72.8078 50.152C72.4238 50.6 72.1678 50.696 72.0398 50.44C71.4638 51.016 70.9838 51.624 70.5998 52.264C70.2158 52.904 69.6078 53.48 68.7758 53.992C68.5838 54.056 68.0718 54.28 67.2398 54.664C66.4078 55.048 65.9918 55.304 65.9918 55.432L65.1278 55.912C65.0638 55.848 64.8718 55.944 64.5518 56.2C64.2958 56.52 64.0398 56.52 63.7838 56.2C63.5918 56.264 63.3998 56.296 63.2078 56.296C63.0158 56.36 62.8238 56.392 62.6318 56.392ZM64.2638 52.744C64.4558 52.744 64.6798 52.616 64.9358 52.36H65.0318C65.2238 52.36 65.4478 52.2 65.7038 51.88C65.9598 51.56 66.1198 51.336 66.1838 51.208C66.5038 51.08 66.7598 50.92 66.9518 50.728C67.2078 50.536 67.3998 50.344 67.5278 50.152L70.0238 47.752C70.9838 46.792 71.7518 45.864 72.3278 44.968C72.9038 44.072 73.4798 43.08 74.0558 41.992C74.1838 41.8 74.4398 41.32 74.8238 40.552C75.2718 39.784 75.5918 39.4 75.7838 39.4C76.4878 38.12 76.9998 36.904 77.3198 35.752C77.7038 34.536 78.1838 33.256 78.7598 31.912L78.4718 31.528C78.3438 31.72 78.1198 31.976 77.7998 32.296C77.4798 32.616 77.3518 32.936 77.4158 33.256C77.2878 33.32 76.9038 33.8 76.2638 34.696C75.6878 35.528 74.9838 36.552 74.1518 37.768C73.3838 38.92 72.5838 40.104 71.7518 41.32C70.9838 42.536 70.3118 43.592 69.7358 44.488C69.2238 45.384 68.9358 45.896 68.8718 46.024C68.6158 46.216 68.3918 46.472 68.1998 46.792C68.0078 47.112 67.8478 47.432 67.7198 47.752L67.6238 47.656C67.2398 48.104 66.6638 48.84 65.8958 49.864C65.1918 50.888 64.6158 51.56 64.1678 51.88C64.1038 52.072 64.0718 52.264 64.0718 52.456C64.0718 52.648 64.1358 52.744 64.2638 52.744Z" fill="white"/>
</svg>
